<svg version="1.2" xmlns="http://www.w3.org/2000/svg" viewBox="0 0 47 70" width="47" height="70">
	<title>HINDUSTAN LUBTRAC-Faridabad-19</title>
	<style>
		.s0 { fill: #333333 } 
	</style>
	<g id="Layer">
		<path id="Layer" class="s0" d="m16.2 44.1c-0.7-0.5-1.5-0.8-2.3-1l-3.3-0.3-5.8 25.1 5.6-4.4c0.1-0.1 0.4-0.2 0.7-0.1 0.2 0.1 0.3 0.2 0.5 0.4l2.8 6.3 5.4-23.3c-0.1-0.1-0.2-0.1-0.2-0.2z"/>
		<path id="Layer" class="s0" d="m33.1 43.2c-0.8 0.2-1.6 0.5-2.3 1l-3.4 2.5c0 0.1-0.1 0.1-0.2 0.2l5.4 23.2 2.8-6.3c0.1-0.2 0.3-0.3 0.5-0.4 0.3-0.1 0.5 0 0.7 0.1l5.6 4.4-5.8-25.1z"/>
		<path id="Layer" fill-rule="evenodd" class="s0" d="m45.8 20.2c1.4 1.8 1.4 4.3 0 6.1l-2.5 3.4c-0.6 0.9-1.1 2-1.2 3l-0.6 4.2c-0.4 2.3-2.2 4-4.4 4.3l-4.1 0.6c-1.2 0.2-2.2 0.6-3.1 1.3l-3.3 2.5c-1.7 1.3-4.2 1.3-6.1 0l-3.3-2.5c-0.9-0.6-2-1.1-3-1.3l-4.2-0.6c-2.3-0.3-4-2.1-4.3-4.3l-0.6-4.2c-0.2-1.1-0.6-2.1-1.2-3l-2.5-3.4c-1.4-1.7-1.4-4.2 0-6.1l2.5-3.3c0.6-0.9 1-2 1.2-3.1l0.6-4.1c0.4-2.3 2.1-4.1 4.3-4.4l4.1-0.6c1.1-0.1 2.1-0.5 3-1.2l3.4-2.5c0.9-0.7 1.9-1 3-1 1.1 0 2.1 0.3 3 1l3.3 2.4c0.9 0.6 2 1.1 3 1.2l4.2 0.7c2.3 0.3 4 2.1 4.3 4.3l0.6 4.2c0.2 1.1 0.6 2.1 1.2 3zm-5.7 3c0-9.2-7.4-16.7-16.6-16.7-9.1 0-16.6 7.5-16.6 16.7 0 9.2 7.5 16.6 16.6 16.6 9.2 0 16.6-7.4 16.6-16.6z"/>
		<path id="Layer" fill-rule="evenodd" class="s0" d="m23.5 38.3c-8.3 0-15.1-6.7-15.1-15.1 0-8.4 6.8-15.1 15.1-15.1 8.3 0 15.1 6.7 15.1 15.1 0 8.4-6.8 15.1-15.1 15.1zm11.2-19.8c0-0.8-0.7-1.5-1.4-1.5-0.8 0-1.5 0.7-1.5 1.5 0 0.5 0.3 1 0.6 1.2-2.5 3.1-6.3 5.9-6.3 5.9-1.5-2.7-2.2-5.3-2.5-7.3 0.8 0 1.5-0.8 1.5-1.6 0-0.9-0.8-1.7-1.7-1.7-0.9 0-1.6 0.8-1.6 1.7 0 0.8 0.6 1.6 1.5 1.6-0.3 2-1 4.5-2.5 7.3 0 0-4-2.8-6.4-5.9 0.4-0.3 0.6-0.7 0.6-1.2 0-0.8-0.7-1.5-1.4-1.5-0.8 0-1.5 0.7-1.5 1.5 0 0.8 0.6 1.4 1.5 1.4 0.1 0 0.3 0 0.4 0l3.9 12h11.1l3.9-12c0.2 0 0.3 0 0.5 0 0.8 0 1.4-0.6 1.3-1.4z"/>
	</g>
</svg>