<svg version="1.2" xmlns="http://www.w3.org/2000/svg" viewBox="0 0 71 70" width="71" height="70">
	<title>HINDUSTAN LUBTRAC-Faridabad-22</title>
	<style>
		.s0 { fill: #025392 } 
	</style>
	<g id="Layer">
		<path id="Layer" class="s0" d="m61.1 64.9l1.7-1v-2.2l-1.7-1-1.7 1v2.2z"/>
		<path id="Layer" class="s0" d="m70.6 59.1c-0.8-2.5-3.2-3.4-5.6-4.3v8.1c0 2.1-1.7 3.8-3.8 3.8-1 0-2-0.4-2.7-1.1-0.7-0.7-1.1-1.6-1.1-2.6l-0.1-11.1c-3.9-1.6-8.3-3.3-8.9-3.4-1.2-0.9-2.4-3.6-3.1-4.9-0.6-0.1-1.2-0.2-1.9-0.4 0.1-2.1 1.4-2.2 1.9-3.8 0.5-1.4 0.1-3.2 0.8-4.6 0.5-0.9 1.2-0.4 1.7-1.2 0.6-0.7 0.7-2.3 0.8-3.1 0.3-1.6 0.5-3.4 0.7-5.1 0.2-1-0.8-1.4-0.8-1.4h-26.4c0 0-0.9 0.3-0.7 2 0.1 1.9 0.1 6.7 2.1 7.8 1.3 0.8 1.3 3.9 2 6.1 0.6 1.9 2 1.3 2.4 3.1l-1.8 0.4c-0.7 1.4-1.8 4.1-3.1 4.9-1 0.3-10.4 4-14 5.4-3.2 1.4-7.1 1.9-8.3 5.3 0 2.2-0.2 7.7-0.2 10.6h70.3c0-2.8-0.2-8.2-0.2-10.5z"/>
		<path id="Layer" class="s0" d="m52.8 19.7h-2.6v-2.6c0-8-5.7-14.5-13.5-15.2-0.1-1-0.7-1.7-1.2-1.7-0.6 0-1.1 0.7-1.2 1.7-7.9 0.7-13.6 7.2-13.6 15.2v2.5h-2.7v2.6h34.8z"/>
		<path id="Layer" class="s0" d="m64.9 54.8l-0.1-18.3v-0.3c2.5-1.4 4.1-4 4.1-7 0-2.9-1.6-5.6-4.1-6.9v6.5l-3.9 2.3-4.1-2.3v-6.5c-2.4 1.4-4.1 4-4 7 0 3.1 1.8 5.9 4.5 7.2v15.3c2 0.8 3.9 1.6 5 2 0.9 0.5 1.8 0.7 2.6 1z"/>
	</g>
</svg>